<svg xmlns="http://www.w3.org/2000/svg" xmlns:xlink="http://www.w3.org/1999/xlink" width="500" zoomAndPan="magnify" viewBox="0 0 375 374.999991" height="500" preserveAspectRatio="xMidYMid meet" version="1.0"><defs><g/><clipPath id="c349d5511b"><rect x="0" width="306" y="0" height="375"/></clipPath></defs><rect x="-37.5" width="450" fill="#ffffff" y="-37.499999" height="449.999989" fill-opacity="1"/><rect x="-37.5" width="450" fill="#000000" y="-37.499999" height="449.999989" fill-opacity="1"/><g transform="matrix(1, 0, 0, 1, 37, 0)"><g clip-path="url(#c349d5511b)"><g fill="#ffffff" fill-opacity="1"><g transform="translate(0.500002, 316.200796)"><g><path d="M 267.625 -32.984375 L 216.078125 -104.625 L 216.078125 -265.359375 L 267.625 -265.359375 Z M 267.625 0 L 217.59375 0 C 208.238281 0 200.148438 -3.914062 193.328125 -11.75 L 83.78125 -177.40625 L 83.78125 0 L 31.84375 0 L 31.84375 -265.359375 L 69.375 -265.359375 C 78.46875 -265.359375 86.425781 -261.441406 93.25 -253.609375 C 151.125 -168.941406 209.25 -84.40625 267.625 0 Z M 267.625 0 "/></g></g></g></g></g></svg>